<svg width="146" height="146" viewBox="0 0 146 146" fill="none" xmlns="http://www.w3.org/2000/svg">
<path d="M76 112.5C79.5208 112.5 82.375 115.354 82.375 118.875V131.625C82.375 134.16 80.8943 136.349 78.751 137.376C79.1502 136.543 79.375 135.61 79.375 134.625V121.875C79.375 118.354 76.5208 115.5 73 115.5C72.0144 115.5 71.0812 115.724 70.248 116.123C71.2752 113.98 73.4647 112.5 76 112.5Z" fill="#7858FF"/>
<path d="M111.868 105.868C114.358 103.379 118.393 103.379 120.883 105.868L129.383 114.368C131.872 116.858 131.872 120.893 129.383 123.383C128.857 123.909 128.26 124.321 127.625 124.625C128.758 122.255 128.346 119.332 126.383 117.368L117.883 108.868C115.919 106.905 112.994 106.49 110.624 107.624C110.928 106.989 111.342 106.394 111.868 105.868Z" fill="#7858FF"/>
<path d="M31.1182 105.868C33.6078 103.379 37.6432 103.379 40.1328 105.868C42.6219 108.358 42.6222 112.393 40.1328 114.883L37.1328 117.883C39.6222 115.393 39.6219 111.358 37.1328 108.868C34.6432 106.379 30.6078 106.379 28.1182 108.868L31.1182 105.868Z" fill="#7858FF"/>
<path d="M76 36C94.7777 36 110 51.2223 110 70C110 80.1523 105.548 89.2623 98.4922 95.4922C103.785 89.4979 107 81.6254 107 73C107 54.2223 91.7777 39 73 39C64.3746 39 56.5011 42.2139 50.5068 47.5068C56.7367 40.4514 65.8477 36 76 36Z" fill="#7858FF"/>
<path d="M27.125 63.625C30.6458 63.625 33.5 66.4792 33.5 70C33.5 72.5354 32.0193 74.7239 29.876 75.751C30.2752 74.918 30.5 73.9854 30.5 73C30.5 69.4792 27.6458 66.625 24.125 66.625H11.375C10.3894 66.625 9.45616 66.8487 8.62305 67.248C9.65023 65.105 11.8397 63.625 14.375 63.625H27.125Z" fill="#7858FF"/>
<path d="M137.625 63.625C141.146 63.625 144 66.4792 144 70C144 72.5354 142.519 74.7239 140.376 75.751C140.775 74.918 141 73.9854 141 73C141 69.4792 138.146 66.625 134.625 66.625H121.875C120.889 66.625 119.956 66.8487 119.123 67.248C120.15 65.105 122.34 63.625 124.875 63.625H137.625Z" fill="#7858FF"/>
<path d="M22.6182 16.6182C25.1078 14.1286 29.1432 14.1286 31.6328 16.6182L40.1328 25.1182C42.6219 27.6078 42.6222 31.6434 40.1328 34.1328C39.6067 34.6589 39.01 35.0712 38.375 35.375C39.5085 33.0053 39.0959 30.0816 37.1328 28.1182L28.6328 19.6182C26.6692 17.6546 23.744 17.2402 21.374 18.374C21.6778 17.7392 22.0922 17.1442 22.6182 16.6182Z" fill="#7858FF"/>
<path d="M120.368 16.6182C122.858 14.1286 126.893 14.1286 129.383 16.6182C131.872 19.1078 131.872 23.1434 129.383 25.6328L126.383 28.6328C128.872 26.1434 128.872 22.1078 126.383 19.6182C123.893 17.1286 119.858 17.1286 117.368 19.6182L120.368 16.6182Z" fill="#7858FF"/>
<path d="M76 2C79.5208 2 82.375 4.85418 82.375 8.375V21.125C82.375 23.6604 80.8943 25.8489 78.751 26.876C79.1502 26.043 79.375 25.1104 79.375 24.125V11.375C79.375 7.85418 76.5208 5 73 5C72.0144 5 71.0812 5.22374 70.248 5.62305C71.2752 3.47996 73.4647 2 76 2Z" fill="#7858FF"/>
<path d="M79.251 120.623C82.1728 121.204 84.375 123.782 84.375 126.875V139.625C84.375 143.146 81.5208 146 78 146C74.9074 146 72.3294 143.798 71.748 140.876C72.1529 140.957 72.5714 141 73 141C76.5208 141 79.375 138.146 79.375 134.625V121.875C79.375 121.446 79.3316 121.028 79.251 120.623Z" fill="#FFC933"/>
<path d="M38.875 112.124C40.0684 112.362 41.2077 112.943 42.1328 113.868C44.6219 116.358 44.6222 120.393 42.1328 122.883L33.6328 131.383C31.1434 133.872 27.1078 133.872 24.6182 131.383C23.693 130.458 23.1116 129.318 22.874 128.125C24.8925 128.527 27.0681 127.948 28.6328 126.383L37.1328 117.883C38.6975 116.318 39.2772 114.142 38.875 112.124Z" fill="#FFC933"/>
<path d="M131.383 122.368C133.872 124.858 133.872 128.893 131.383 131.383C128.893 133.872 124.858 133.872 122.368 131.383L117.368 126.383C119.858 128.872 123.893 128.872 126.383 126.383C128.872 123.893 128.872 119.858 126.383 117.368L131.383 122.368Z" fill="#FFC933"/>
<path d="M99.4102 51.5889C107.091 57.8226 112 67.3374 112 78C112 96.7777 96.7777 112 78 112C67.3374 112 57.8226 107.091 51.5889 99.4102C57.4343 104.155 64.8845 107 73 107C91.7777 107 107 91.7777 107 73C107 64.8845 104.155 57.4343 99.4102 51.5889Z" fill="#FFC933"/>
<path d="M30.376 71.748C33.2978 72.3294 35.5 74.9074 35.5 78C35.5 81.5208 32.6458 84.375 29.125 84.375H16.375C13.2824 84.375 10.7044 82.1728 10.123 79.251C10.5279 79.3316 10.9464 79.375 11.375 79.375H24.125C27.6458 79.375 30.5 76.5208 30.5 73C30.5 72.5714 30.4566 72.1529 30.376 71.748Z" fill="#FFC933"/>
<path d="M140.876 71.748C143.798 72.3294 146 74.9074 146 78C146 81.5208 143.146 84.375 139.625 84.375H126.875C123.782 84.375 121.204 82.1728 120.623 79.251C121.028 79.3316 121.446 79.375 121.875 79.375H134.625C138.146 79.375 141 76.5208 141 73C141 72.5714 140.957 72.1529 140.876 71.748Z" fill="#FFC933"/>
<path d="M42.1328 33.1182C44.6219 35.6078 44.6222 39.6434 42.1328 42.1328C39.6434 44.6222 35.6078 44.6219 33.1182 42.1328L28.1182 37.1328C30.6078 39.6219 34.6434 39.6222 37.1328 37.1328C39.6222 34.6434 39.6219 30.6078 37.1328 28.1182L42.1328 33.1182Z" fill="#FFC933"/>
<path d="M128.125 22.874C129.318 23.1116 130.458 23.693 131.383 24.6182C133.872 27.1078 133.872 31.1434 131.383 33.6328L122.883 42.1328C120.393 44.6222 116.358 44.6219 113.868 42.1328C112.943 41.2077 112.362 40.0684 112.124 38.875C114.142 39.2772 116.318 38.6975 117.883 37.1328L126.383 28.6328C127.948 27.0681 128.527 24.8925 128.125 22.874Z" fill="#FFC933"/>
<path d="M79.251 10.123C82.1728 10.7044 84.375 13.2824 84.375 16.375V29.125C84.375 32.6458 81.5208 35.5 78 35.5C74.9074 35.5 72.3294 33.2978 71.748 30.376C72.1529 30.4566 72.5714 30.5 73 30.5C76.5208 30.5 79.375 27.6458 79.375 24.125V11.375C79.375 10.9464 79.3316 10.5279 79.251 10.123Z" fill="#FFC933"/>
<path d="M68 110.5C71.0922 110.5 73.6692 112.702 74.251 115.623C73.8464 115.543 73.4282 115.5 73 115.5C69.4792 115.5 66.625 118.354 66.625 121.875V134.625C66.625 135.053 66.6676 135.471 66.748 135.876C63.8268 135.294 61.625 132.717 61.625 129.625V116.875C61.625 113.354 64.4792 110.5 68 110.5Z" fill="#64EDD2"/>
<path d="M23.1182 103.868C25.6078 101.379 29.6432 101.379 32.1328 103.868C33.0574 104.793 33.6373 105.931 33.875 107.124C31.8569 106.722 29.6826 107.304 28.1182 108.868L19.6182 117.368C18.0537 118.933 17.4723 121.107 17.874 123.125C16.6812 122.887 15.5429 122.307 14.6182 121.383C12.1286 118.893 12.1286 114.858 14.6182 112.368L23.1182 103.868Z" fill="#64EDD2"/>
<path d="M103.868 103.868C106.358 101.379 110.393 101.379 112.883 103.868L117.883 108.868C115.393 106.379 111.358 106.379 108.868 108.868C106.379 111.358 106.379 115.393 108.868 117.883L103.868 112.883C101.379 110.393 101.379 106.358 103.868 103.868Z" fill="#64EDD2"/>
<path d="M68 34C78.6621 34 88.1764 38.9091 94.4102 46.5889C88.5648 41.8445 81.115 39 73 39C54.2223 39 39 54.2223 39 73C39 81.115 41.8445 88.5648 46.5889 94.4102C38.9091 88.1764 34 78.6621 34 68C34 49.2223 49.2223 34 68 34Z" fill="#64EDD2"/>
<path d="M19.125 61.625C22.2172 61.625 24.7942 63.8268 25.376 66.748C24.9714 66.6676 24.5532 66.625 24.125 66.625H11.375C7.85418 66.625 5 69.4792 5 73C5 73.4282 5.04255 73.8464 5.12305 74.251C2.20182 73.6692 0 71.0922 0 68C0 64.4792 2.85418 61.625 6.375 61.625H19.125Z" fill="#64EDD2"/>
<path d="M129.625 61.625C132.717 61.625 135.294 63.8268 135.876 66.748C135.471 66.6676 135.053 66.625 134.625 66.625H121.875C118.354 66.625 115.5 69.4792 115.5 73C115.5 73.4282 115.543 73.8464 115.623 74.251C112.702 73.6692 110.5 71.0922 110.5 68C110.5 64.4792 113.354 61.625 116.875 61.625H129.625Z" fill="#64EDD2"/>
<path d="M112.368 14.6182C114.858 12.1286 118.893 12.1286 121.383 14.6182C122.307 15.5429 122.887 16.6812 123.125 17.874C121.107 17.4723 118.933 18.0537 117.368 19.6182L108.868 28.1182C107.304 29.6826 106.722 31.8569 107.124 33.875C105.931 33.6373 104.793 33.0574 103.868 32.1328C101.379 29.6432 101.379 25.6078 103.868 23.1182L112.368 14.6182Z" fill="#64EDD2"/>
<path d="M14.6182 14.6182C17.1078 12.1286 21.1432 12.1286 23.6328 14.6182L28.6328 19.6182C26.1432 17.1286 22.1078 17.1286 19.6182 19.6182C17.1286 22.1078 17.1286 26.1432 19.6182 28.6328L14.6182 23.6328C12.1286 21.1432 12.1286 17.1078 14.6182 14.6182Z" fill="#64EDD2"/>
<path d="M68 0C71.0922 0 73.6692 2.20182 74.251 5.12305C73.8464 5.04255 73.4282 5 73 5C69.4792 5 66.625 7.85418 66.625 11.375V24.125C66.625 24.5532 66.6676 24.9714 66.748 25.376C63.8268 24.7942 61.625 22.2172 61.625 19.125V6.375C61.625 2.85418 64.4792 0 68 0Z" fill="#64EDD2"/>
<path d="M73 115.5C76.5208 115.5 79.375 118.354 79.375 121.875V134.625C79.375 138.146 76.5208 141 73 141C69.4792 141 66.625 138.146 66.625 134.625V121.875C66.625 118.354 69.4792 115.5 73 115.5ZM28.1177 108.868C30.6073 106.378 34.6427 106.378 37.1323 108.868C39.6219 111.357 39.6219 115.393 37.1323 117.882L28.6323 126.382C26.1427 128.872 22.1073 128.872 19.6177 126.382C17.1281 123.893 17.1281 119.857 19.6177 117.368L28.1177 108.868ZM108.868 108.868C111.357 106.378 115.393 106.378 117.882 108.868L126.382 117.368C128.872 119.857 128.872 123.893 126.382 126.382C123.893 128.872 119.857 128.872 117.368 126.382L108.868 117.882C106.378 115.393 106.378 111.357 108.868 108.868ZM73 39C91.7777 39 107 54.2223 107 73C107 91.7777 91.7777 107 73 107C54.2223 107 39 91.7777 39 73C39 54.2223 54.2223 39 73 39ZM73 51.75C61.264 51.75 51.75 61.264 51.75 73C51.75 84.7361 61.264 94.25 73 94.25C84.7361 94.25 94.25 84.7361 94.25 73C94.25 61.264 84.7361 51.75 73 51.75ZM24.125 66.625C27.6458 66.625 30.5 69.4792 30.5 73C30.5 76.5208 27.6458 79.375 24.125 79.375H11.375C7.85418 79.375 5 76.5208 5 73C5 69.4792 7.85418 66.625 11.375 66.625H24.125ZM134.625 66.625C138.146 66.625 141 69.4792 141 73C141 76.5208 138.146 79.375 134.625 79.375H121.875C118.354 79.375 115.5 76.5208 115.5 73C115.5 69.4792 118.354 66.625 121.875 66.625H134.625ZM19.6177 19.6177C22.1073 17.1281 26.1427 17.1281 28.6323 19.6177L37.1323 28.1177C39.6219 30.6073 39.6219 34.6427 37.1323 37.1323C34.6427 39.6219 30.6073 39.6219 28.1177 37.1323L19.6177 28.6323C17.1281 26.1427 17.1281 22.1073 19.6177 19.6177ZM117.368 19.6177C119.857 17.1281 123.893 17.1281 126.382 19.6177C128.872 22.1073 128.872 26.1427 126.382 28.6323L117.882 37.1323C115.393 39.6219 111.357 39.6219 108.868 37.1323C106.378 34.6427 106.378 30.6073 108.868 28.1177L117.368 19.6177ZM73 5C76.5208 5 79.375 7.85418 79.375 11.375V24.125C79.375 27.6458 76.5208 30.5 73 30.5C69.4792 30.5 66.625 27.6458 66.625 24.125V11.375C66.625 7.85418 69.4792 5 73 5Z" fill="white"/>
</svg>
